<svg width="25" height="24" viewBox="0 0 25 24" fill="none" xmlns="http://www.w3.org/2000/svg">
<path fill-rule="evenodd" clip-rule="evenodd" d="M12.7456 18.5005C14.5673 17.1322 15.7456 14.9537 15.7456 12.5C15.7456 10.0463 14.5673 7.86776 12.7456 6.49945C13.9991 5.55792 15.5572 5 17.2456 5C21.3877 5 24.7456 8.35786 24.7456 12.5C24.7456 16.6421 21.3877 20 17.2456 20C15.5572 20 13.9991 19.4421 12.7456 18.5005Z" fill="#160042"/>
<path fill-rule="evenodd" clip-rule="evenodd" d="M11.6882 17.5364C10.7084 18.2075 9.52283 18.6 8.24561 18.6C4.87667 18.6 2.14561 15.8689 2.14561 12.5C2.14561 9.13106 4.87667 6.4 8.24561 6.4C9.52283 6.4 10.7084 6.79254 11.6882 7.46355C12.009 7.10977 12.3631 6.78675 12.7456 6.49945C11.4921 5.55792 9.93402 5 8.24561 5C4.10347 5 0.745605 8.35786 0.745605 12.5C0.745605 16.6421 4.10347 20 8.24561 20C9.93402 20 11.4921 19.4421 12.7456 18.5005C12.3631 18.2132 12.009 17.8902 11.6882 17.5364Z" fill="#E4E6F1"/>
<circle cx="8.24561" cy="12.5" r="6.8" fill="#6B6B6B" stroke="#E4E6F1" stroke-width="1.4"/>
<circle cx="17.2456" cy="12.5" r="6.8" fill="#6B6B6B" stroke="#E4E6F1" stroke-width="1.4"/>
<rect x="10.7456" y="9" width="4" height="1.4" fill="#E4E6F1"/>
<rect x="10.7456" y="11.8" width="4" height="1.4" fill="#E4E6F1"/>
<rect x="11.2456" y="14.6" width="3" height="1.4" fill="#E4E6F1"/>
<circle cx="8.24561" cy="12.5" r="6.8" stroke="#E4E6F1" stroke-width="1.4"/>
</svg>
