<svg width="25" height="24" viewBox="0 0 25 24" fill="none" xmlns="http://www.w3.org/2000/svg">
<path d="M9.88934 20.7821V17.7152C9.88932 16.9381 10.5213 16.3067 11.304 16.3018H14.1782C14.9645 16.3018 15.6019 16.9346 15.6019 17.7152V20.7732C15.6019 21.4473 16.1496 21.9951 16.8285 22H18.7894C19.7052 22.0023 20.5844 21.6428 21.2328 21.0007C21.8812 20.3586 22.2456 19.4868 22.2456 18.5775V9.86585C22.2456 9.13139 21.9177 8.43471 21.3502 7.9635L14.6886 2.67427C13.5241 1.74912 11.861 1.77901 10.731 2.74538L4.21262 7.9635C3.61835 8.42082 3.26316 9.11956 3.24561 9.86585V18.5686C3.24561 20.4637 4.79299 22 6.70178 22H8.6179C8.94478 22.0023 9.25909 21.8751 9.49108 21.6464C9.72306 21.4178 9.85353 21.1067 9.85352 20.7821H9.88934Z" fill="#6B6B6B" stroke="white" stroke-width="1.4"/>
</svg>
