<svg width="18" height="22" viewBox="0 0 18 22" fill="none" xmlns="http://www.w3.org/2000/svg">
<path d="M9.24236 14.1746C4.92936 14.1746 1.24536 14.8546 1.24536 17.5746C1.24536 20.2956 4.90636 20.9996 9.24236 20.9996C13.5554 20.9996 17.2394 20.3206 17.2394 17.5996C17.2394 14.8786 13.5794 14.1746 9.24236 14.1746Z" fill="#6B6B6B"/>
<path d="M9.24236 14.1746C4.92936 14.1746 1.24536 14.8546 1.24536 17.5746C1.24536 20.2956 4.90636 20.9996 9.24236 20.9996C13.5554 20.9996 17.2394 20.3206 17.2394 17.5996C17.2394 14.8786 13.5794 14.1746 9.24236 14.1746" stroke="#E4E6F1" stroke-width="1.5"/>
<path d="M9.24238 11.5837C12.1804 11.5837 14.5344 9.22869 14.5344 6.29169C14.5344 3.35469 12.1804 0.999695 9.24238 0.999695C6.30538 0.999695 3.95038 3.35469 3.95038 6.29169C3.95038 9.22869 6.30538 11.5837 9.24238 11.5837Z" fill="#6B6B6B" stroke="#E4E6F1" stroke-width="1.5"/>
</svg>
