<svg width="70" height="70" viewBox="0 0 70 70" fill="none" xmlns="http://www.w3.org/2000/svg">
<circle cx="35" cy="35" r="35" fill="#FFC24B"/>
<circle cx="25.5" cy="14.5" r="5.5" fill="#DFAC49"/>
<circle cx="60.5" cy="37.5" r="5.5" fill="#DFAC49"/>
<circle cx="55.5" cy="27.5" r="2.5" fill="#DFAC49"/>
<circle cx="12" cy="33" r="8" fill="#DFAC49"/>
<path d="M50.4 32.736V24C50.4 21.855 48.645 20.1 46.5 20.1H23.1C20.955 20.1 19.2 21.855 19.2 24V47.4C19.2 49.545 20.955 51.3 23.1 51.3H46.5C48.645 51.3 50.4 49.545 50.4 47.4V38.664L58.2 46.425V24.975L50.4 32.736ZM25.05 43.5L29.691 37.3185L32.85 41.55L37.959 34.725L44.55 43.5H25.05Z" fill="#2B2F42"/>
</svg>
