<svg width="70" height="70" viewBox="0 0 70 70" fill="none" xmlns="http://www.w3.org/2000/svg">
<circle cx="35" cy="35" r="35" fill="#FFC24B"/>
<circle cx="25.5" cy="14.5" r="5.5" fill="#DFAC49"/>
<circle cx="60.5" cy="37.5" r="5.5" fill="#DFAC49"/>
<circle cx="55.5" cy="27.5" r="2.5" fill="#DFAC49"/>
<circle cx="12" cy="33" r="8" fill="#DFAC49"/>
<path d="M50.1 21.8889C52.245 21.8889 54 23.6389 54 25.7778V49.1111C54 51.25 52.245 53 50.1 53H18.9C16.755 53 15 51.25 15 49.1111V25.7778C15 23.6389 16.755 21.8889 18.9 21.8889H25.0815L28.65 18H40.35L43.9185 21.8889H50.1ZM50.1 49.1111V25.7778H18.9V49.1111H50.1ZM38.4 35.5L32.55 42.7333L28.65 37.4444L22.8 45.2222H46.2L38.4 35.5Z" fill="#2B2F42"/>
</svg>
