<svg width="70" height="70" viewBox="0 0 70 70" fill="none" xmlns="http://www.w3.org/2000/svg">
<circle cx="35" cy="35" r="35" fill="#FFC24B"/>
<circle cx="25.5" cy="14.5" r="5.5" fill="#DFAC49"/>
<circle cx="60.5" cy="37.5" r="5.5" fill="#DFAC49"/>
<circle cx="55.5" cy="27.5" r="2.5" fill="#DFAC49"/>
<circle cx="12" cy="33" r="8" fill="#DFAC49"/>
<path d="M35.4999 43.7401C38.9462 43.7401 41.7399 40.9464 41.7399 37.5001C41.7399 34.0539 38.9462 31.2601 35.4999 31.2601C32.0537 31.2601 29.2599 34.0539 29.2599 37.5001C29.2599 40.9464 32.0537 43.7401 35.4999 43.7401Z" fill="#2B2F42"/>
<path d="M29.65 18L26.0815 21.9H19.9C17.755 21.9 16 23.655 16 25.8V49.2C16 51.345 17.755 53.1 19.9 53.1H51.1C53.245 53.1 55 51.345 55 49.2V25.8C55 23.655 53.245 21.9 51.1 21.9H44.9185L41.35 18H29.65ZM35.5 47.25C30.118 47.25 25.75 42.882 25.75 37.5C25.75 32.118 30.118 27.75 35.5 27.75C40.882 27.75 45.25 32.118 45.25 37.5C45.25 42.882 40.882 47.25 35.5 47.25Z" fill="#2B2F42"/>
</svg>
