<svg width="86" height="86" viewBox="0 0 86 86" fill="none" xmlns="http://www.w3.org/2000/svg">
<rect width="85.3333" height="85.3333" rx="10" fill="#7D5FF0"/>
<circle cx="42.3218" cy="42.4007" r="21.4007" fill="#F8C31B" fill-opacity="0.78"/>
<circle cx="42.3218" cy="42.4007" r="21.1507" stroke="#F8C31B" stroke-opacity="0.11" stroke-width="0.5"/>
<ellipse cx="43" cy="42.7406" rx="34.8532" ry="7.26816" transform="rotate(-22.3389 43 42.7406)" fill="url(#paint0_radial_1654_1317)"/>
<path d="M74.9138 29.6264C75.0581 29.9778 75.0435 30.4236 74.815 30.9856C74.586 31.5492 74.1537 32.1978 73.5169 32.9197C72.2444 34.3622 70.2092 36.0373 67.5524 37.8373C62.2437 41.4341 54.5163 45.4877 45.6295 49.1395C36.7427 52.7913 28.3977 55.3422 22.0939 56.5173C18.9391 57.1054 16.3141 57.3453 14.395 57.2143C13.4347 57.1487 12.6712 56.9914 12.1121 56.7517C11.5545 56.5127 11.2306 56.206 11.0862 55.8547C10.9419 55.5033 10.9565 55.0575 11.185 54.4955C11.414 53.9319 11.8463 53.2833 12.4831 52.5614C13.7556 51.1189 15.7908 49.4438 18.4476 47.6438C23.7563 44.0471 31.4837 39.9934 40.3705 36.3416C49.2573 32.6898 57.6023 30.1389 63.9061 28.9638C67.0609 28.3757 69.6859 28.1358 71.605 28.2669C72.5653 28.3324 73.3288 28.4897 73.8879 28.7294C74.4455 28.9684 74.7694 29.2751 74.9138 29.6264Z" stroke="#FF8A00" stroke-opacity="0.11" stroke-width="0.7"/>
<path d="M67.7506 32.3896C68.6614 34.606 58.0203 41.0789 43.983 46.8471C29.9458 52.6153 17.828 55.4946 16.9172 53.2782C16.0065 51.0618 26.6476 44.5889 40.6848 38.8207C54.722 33.0525 66.8398 30.1732 67.7506 32.3896Z" fill="url(#paint1_radial_1654_1317)"/>
<path d="M67.4269 32.5226C67.4795 32.6507 67.4737 32.8715 67.2635 33.2355C67.0576 33.5922 66.6906 34.0217 66.1573 34.5157C65.0938 35.5009 63.4334 36.6839 61.2904 37.9874C57.0093 40.5916 50.8571 43.644 43.85 46.5234C36.8429 49.4028 30.3221 51.558 25.4468 52.7164C23.0065 53.2962 20.9941 53.6225 19.5451 53.6698C18.8186 53.6935 18.2556 53.646 17.8584 53.5373C17.453 53.4262 17.2936 53.2733 17.241 53.1452C17.1884 53.0171 17.1941 52.7963 17.4044 52.4323C17.6103 52.0757 17.9773 51.6461 18.5106 51.1521C19.5741 50.1669 21.2344 48.984 23.3774 47.6804C27.6586 45.0762 33.8107 42.0238 40.8178 39.1444C47.8249 36.265 54.3458 34.1098 59.221 32.9514C61.6614 32.3716 63.6738 32.0453 65.1227 31.9981C65.8493 31.9744 66.4123 32.0218 66.8094 32.1306C67.2149 32.2416 67.3742 32.3945 67.4269 32.5226Z" stroke="#FF8A00" stroke-opacity="0.11" stroke-width="0.7"/>
<path d="M42.3218 21C30.5026 21 20.9211 30.5814 20.9211 42.4007C20.9211 44.9086 21.3525 47.3158 22.1452 49.552C22.3016 49.9933 22.3798 50.2139 22.5469 50.3766C22.6871 50.5131 22.891 50.6158 23.0841 50.6471C23.3143 50.6845 23.5546 50.6109 24.0352 50.4637C40.0039 45.5722 48.3771 41.885 60.9015 35.0111C61.3387 34.7711 61.5574 34.6511 61.6909 34.4608C61.803 34.3012 61.8718 34.0842 61.8724 33.8892C61.8731 33.6567 61.7708 33.447 61.5661 33.0276L61.5661 33.0276C58.091 25.9061 50.7794 21 42.3218 21Z" fill="url(#paint2_linear_1654_1317)" fill-opacity="0.95" stroke="#F8C31B" stroke-width="0.5"/>
<defs>
<radialGradient id="paint0_radial_1654_1317" cx="0" cy="0" r="1" gradientUnits="userSpaceOnUse" gradientTransform="translate(43 42.7406) rotate(90) scale(7.26816 34.8532)">
<stop stop-color="#FF8A00"/>
<stop offset="1" stop-color="#FF8A00" stop-opacity="0.78"/>
</radialGradient>
<radialGradient id="paint1_radial_1654_1317" cx="0" cy="0" r="1" gradientUnits="userSpaceOnUse" gradientTransform="translate(42.3339 42.8339) rotate(67.6611) scale(4.33882 27.4789)">
<stop stop-color="#FF8A00"/>
<stop offset="1" stop-color="#FF8A00" stop-opacity="0.17"/>
</radialGradient>
<linearGradient id="paint2_linear_1654_1317" x1="41.5338" y1="21" x2="41.5338" y2="50.8802" gradientUnits="userSpaceOnUse">
<stop stop-color="#F8C31B" stop-opacity="0.74"/>
<stop offset="1" stop-color="#F8C31B" stop-opacity="0.99"/>
</linearGradient>
</defs>
</svg>
