<svg width="130" height="130" viewBox="0 0 130 130" fill="none" xmlns="http://www.w3.org/2000/svg">
<circle cx="65" cy="65" r="65" fill="#EDC211"/>
<mask id="mask0_1566_1351" style="mask-type:alpha" maskUnits="userSpaceOnUse" x="0" y="0" width="130" height="130">
<circle cx="65" cy="65" r="65" fill="#EDC211"/>
</mask>
<g mask="url(#mask0_1566_1351)">
<path d="M66.6941 28L134 84.2085L81.2603 147L24 98.8936L66.6941 28Z" fill="#E6B00B"/>
</g>
<mask id="mask1_1566_1351" style="mask-type:alpha" maskUnits="userSpaceOnUse" x="24" y="28" width="82" height="74">
<rect x="24" y="28" width="82" height="74" fill="#D9D9D9"/>
</mask>
<g mask="url(#mask1_1566_1351)">
<path d="M67.0785 35.6L100.161 92.9C101.109 94.5435 101.679 95.5379 102.022 96.2809C102.042 96.326 102.061 96.3681 102.079 96.4073C102.036 96.412 101.99 96.4167 101.941 96.4212C101.126 96.496 99.9799 96.5 98.0822 96.5H31.9178C30.0201 96.5 28.8741 96.496 28.0594 96.4212C28.0099 96.4167 27.964 96.412 27.9214 96.4073C27.9386 96.3681 27.9575 96.326 27.9784 96.2809C28.321 95.5379 28.8905 94.5435 29.8394 92.9L62.9215 35.6C63.8704 33.9565 64.4469 32.9661 64.919 32.2979C64.9476 32.2573 64.9746 32.2198 65 32.1853C65.0254 32.2198 65.0524 32.2573 65.081 32.2979C65.5531 32.9661 66.1296 33.9565 67.0785 35.6Z" fill="#E6B00B" stroke="white" stroke-width="8"/>
</g>
<path d="M68.75 52H60.75L61.25 78.5H67.75L68.75 52Z" fill="white" stroke="white"/>
<circle cx="64.5" cy="87" r="4.5" fill="white"/>
</svg>
