<svg width="25" height="24" viewBox="0 0 25 24" fill="none" xmlns="http://www.w3.org/2000/svg">
<path d="M9.38934 20.7821V17.7152C9.38932 16.9381 10.0213 16.3067 10.804 16.3018H13.6782C14.4645 16.3018 15.1019 16.9346 15.1019 17.7152V20.7732C15.1019 21.4473 15.6496 21.9951 16.3285 22H18.2894C19.2052 22.0023 20.0844 21.6428 20.7328 21.0007C21.3812 20.3586 21.7456 19.4868 21.7456 18.5775V9.86585C21.7456 9.13139 21.4177 8.43471 20.8502 7.9635L14.1886 2.67427C13.0241 1.74912 11.361 1.77901 10.231 2.74538L3.71262 7.9635C3.11835 8.42082 2.76316 9.11956 2.74561 9.86585V18.5686C2.74561 20.4637 4.29299 22 6.20178 22H8.1179C8.44478 22.0023 8.75909 21.8751 8.99108 21.6464C9.22306 21.4178 9.35353 21.1067 9.35352 20.7821H9.38934Z" stroke="#E4E6F1" stroke-width="1.5"/>
</svg>
