<svg width="25" height="24" viewBox="0 0 25 24" fill="none" xmlns="http://www.w3.org/2000/svg">
<circle cx="13.5697" cy="12.0382" r="1.4577" fill="#D9D9D9" stroke="#D9D9D9"/>
<path d="M4.89105 9.8537L8.75794 8.81757" stroke="#D9D9D9"/>
<path d="M5.33258 11.5014L9.19947 10.4653" stroke="#D9D9D9"/>
<path d="M2.68452 9.83982C2.65593 9.73313 2.71924 9.62346 2.82594 9.59487L4.44707 9.16049C4.55377 9.1319 4.66344 9.19522 4.69202 9.30191L5.43609 12.0788C5.46468 12.1855 5.40136 12.2952 5.29467 12.3238L3.67353 12.7581C3.56684 12.7867 3.45717 12.7234 3.42858 12.6167L2.68452 9.83982Z" stroke="#D9D9D9" stroke-width="1.2"/>
<path d="M21.4536 10.961L21.3634 10.2668L21.4536 10.961C22.1733 10.8675 22.646 10.1614 22.4581 9.46038L20.7425 3.05752C20.5549 2.35728 19.7939 1.98203 19.1242 2.25944L16.5477 3.32661C15.9913 3.55706 15.6919 4.16417 15.8478 4.74586L17.3737 10.4408C17.5294 11.0217 18.091 11.3977 18.6874 11.3202L21.4536 10.961Z" fill="#D9D9D9" stroke="#D9D9D9" stroke-width="1.4"/>
<path d="M8.44255 7.88369L9.39214 11.4276C9.55794 12.0464 10.1805 12.4258 10.8065 12.2896L16.8861 10.9663C17.5556 10.8206 17.9673 10.145 17.79 9.4832L16.6886 5.37248C16.5113 4.711 15.8174 4.33174 15.1649 4.53977L9.23713 6.42982C8.62653 6.62451 8.27668 7.26464 8.44255 7.88369Z" stroke="#D9D9D9" stroke-width="1.4"/>
<path d="M8.94386 19.2109L13.265 12.805C13.461 12.5144 13.8873 12.5104 14.0887 12.7973L18.5941 19.2147C18.7651 19.4583 18.6855 19.7979 18.4219 19.9362C14.8855 21.7921 12.826 21.8091 9.1273 19.9283C8.86274 19.7938 8.77789 19.4569 8.94386 19.2109Z" stroke="#D9D9D9" stroke-width="1.4"/>
<path d="M10.4345 16.7041L13.4951 16.2033C13.546 16.195 13.5978 16.1946 13.6488 16.2021L17.0569 16.7041M11.3586 20.8624L13.1128 13.999C13.2392 13.5042 13.9387 13.4949 14.0782 13.9862L16.0302 20.8624" stroke="#D9D9D9" stroke-width="0.8"/>
</svg>
