<svg width="24" height="24" viewBox="0 0 24 24" fill="none" xmlns="http://www.w3.org/2000/svg">
<path d="M14.4389 12.0382C14.4389 12.8436 13.7866 13.4959 12.9826 13.4959C12.1785 13.4959 11.5262 12.8436 11.5262 12.0382C11.5262 11.2328 12.1785 10.5805 12.9826 10.5805C13.7866 10.5805 14.4389 11.2328 14.4389 12.0382Z" fill="#6B6B6B" stroke="white"/>
<path d="M4.30978 9.8537L8.17405 8.81757" stroke="white"/>
<path d="M4.75098 11.5014L8.61525 10.4653" stroke="white"/>
<path d="M2.10474 9.83983C2.07617 9.73313 2.1395 9.62345 2.24619 9.59484L3.86598 9.16052C3.97267 9.13192 4.08232 9.19522 4.11089 9.30192L4.85445 12.0788C4.88302 12.1855 4.81969 12.2952 4.713 12.3238L3.09321 12.7581C2.98652 12.7867 2.87687 12.7234 2.8483 12.6167L2.10474 9.83983Z" fill="#6B6B6B" stroke="white" stroke-width="1.2"/>
<path d="M15.2587 4.74596L16.7836 10.4409C16.9391 11.0218 17.5006 11.3978 18.0969 11.3203L20.8606 10.9611C21.5803 10.8675 22.0531 10.1613 21.8654 9.4602L20.1509 3.05747C19.9634 2.35716 19.2026 1.982 18.5328 2.2596L15.9586 3.32652C15.4023 3.5571 15.1029 4.16428 15.2587 4.74596Z" fill="white" stroke="white" stroke-width="1.4"/>
<path d="M7.85846 7.88382L8.8074 11.4277C8.97309 12.0465 9.59554 12.4259 10.2214 12.2895L16.2964 10.9664C16.9658 10.8206 17.3777 10.1449 17.2005 9.48305L16.0998 5.3724C15.9226 4.71088 15.2288 4.33169 14.5763 4.53985L8.65315 6.42971C8.04259 6.62452 7.69269 7.26475 7.85846 7.88382Z" fill="#6B6B6B" stroke="white" stroke-width="1.4"/>
<path d="M8.35973 19.2111L12.6777 12.8055C12.8737 12.5148 13.3002 12.5108 13.5016 12.7978L18.0037 19.2149C18.1746 19.4585 18.095 19.7978 17.8315 19.9362C14.2975 21.7921 12.2393 21.8092 8.54313 19.9283C8.27872 19.7937 8.1939 19.4571 8.35973 19.2111Z" fill="#6B6B6B" stroke="white" stroke-width="1.4"/>
<path d="M11.9217 16.3648L12.5256 14.0002C12.652 13.5053 13.3517 13.4961 13.4911 13.9875L14.1655 16.3648L13.0617 16.2021C13.0107 16.1946 12.9588 16.195 12.9079 16.2033L11.9217 16.3648Z" fill="#6B6B6B"/>
<path d="M9.84949 16.7041L12.9079 16.2033C12.9588 16.195 13.0107 16.1946 13.0617 16.2021L16.4674 16.7041M10.773 20.8624L12.5256 14.0002C12.652 13.5053 13.3517 13.4961 13.4911 13.9875L15.4414 20.8624" stroke="white" stroke-width="0.8"/>
</svg>
