<svg width="375" height="382" viewBox="0 0 375 382" fill="none" xmlns="http://www.w3.org/2000/svg">
<mask id="mask0_1520_1373" style="mask-type:alpha" maskUnits="userSpaceOnUse" x="0" y="0" width="375" height="382">
<path d="M0 345.205V0H375V345.204C375 345.636 374.712 346.023 374.302 346.157C228.471 393.932 146.274 393.963 0.697571 346.158C0.287251 346.023 0 345.637 0 345.205Z" fill="#723EEA"/>
</mask>
<g mask="url(#mask0_1520_1373)">
<path d="M0 355.523V1H375V355.522C375 355.987 374.669 356.393 374.217 356.498C228.468 390.49 146.278 390.511 0.782526 356.499C0.330295 356.393 0 355.987 0 355.523Z" fill="#723EEA"/>
<rect x="-27.589" y="22.7329" width="128.95" height="150.808" rx="64.4748" transform="matrix(-0.107172 0.994241 -0.996387 -0.0849262 476.366 80.8881)" stroke="url(#paint0_linear_1520_1373)" stroke-width="50"/>
<rect x="30.1211" y="-19.9871" width="227.966" height="259.734" rx="113.983" transform="matrix(0.22044 -0.975401 0.984405 0.175916 -184.433 466.875)" stroke="url(#paint1_linear_1520_1373)" stroke-width="50"/>
</g>
<defs>
<linearGradient id="paint0_linear_1520_1373" x1="11.6706" y1="33.4681" x2="188.901" y2="130.19" gradientUnits="userSpaceOnUse">
<stop stop-color="white" stop-opacity="0.21"/>
<stop offset="1" stop-color="white" stop-opacity="0"/>
</linearGradient>
<linearGradient id="paint1_linear_1520_1373" x1="18.1282" y1="51.6224" x2="292.531" y2="202.432" gradientUnits="userSpaceOnUse">
<stop stop-color="white" stop-opacity="0.21"/>
<stop offset="1" stop-color="white" stop-opacity="0"/>
</linearGradient>
</defs>
</svg>
