<svg width="26" height="28" viewBox="0 0 26 28" fill="none" xmlns="http://www.w3.org/2000/svg">
<path d="M9.25149 10.1728L12.9907 1.02265C12.9941 1.01436 13.0059 1.01436 13.0093 1.02265L16.7485 10.1728C16.7495 10.1752 16.7513 10.1771 16.7536 10.1781L24.9804 13.9909C24.9881 13.9945 24.9881 14.0055 24.9804 14.0091L16.7536 17.8219C16.7513 17.8229 16.7495 17.8248 16.7485 17.8272L13.0093 26.9773C13.0059 26.9856 12.9941 26.9856 12.9907 26.9773L9.25149 17.8272C9.25053 17.8248 9.24873 17.8229 9.24643 17.8219L1.01958 14.0091C1.01185 14.0055 1.01185 13.9945 1.01958 13.9909L9.24643 10.1781C9.24873 10.1771 9.25053 10.1752 9.25149 10.1728Z" fill="#FFFF3F" stroke="black" stroke-width="2"/>
</svg>
