<svg width="32" height="34" viewBox="0 0 32 34" fill="none" xmlns="http://www.w3.org/2000/svg">
<path d="M11.314 12.2905L15.9908 1.02225C15.9942 1.01403 16.0058 1.01403 16.0092 1.02225L20.686 12.2905C20.687 12.2928 20.6888 12.2947 20.6911 12.2958L30.9801 16.9909C30.9879 16.9945 30.9879 17.0055 30.9801 17.0091L20.6911 21.7043C20.6888 21.7053 20.687 21.7072 20.686 21.7095L16.0092 32.9777C16.0058 32.986 15.9942 32.986 15.9908 32.9777L11.314 21.7095C11.313 21.7072 11.3112 21.7053 11.3089 21.7043L1.01994 17.0091C1.01214 17.0055 1.01214 16.9945 1.01994 16.9909L11.3089 12.2957C11.3112 12.2947 11.313 12.2928 11.314 12.2905Z" fill="#FFFF3F" stroke="black" stroke-width="2"/>
</svg>
