<svg width="18" height="19" viewBox="0 0 18 19" fill="none" xmlns="http://www.w3.org/2000/svg">
<path d="M6.50151 6.99637L8.99077 1.02215C8.99419 1.01395 9.00581 1.01395 9.00923 1.02215L11.4985 6.99637C11.4995 6.9987 11.5013 7.00058 11.5036 7.00163L16.98 9.4909C16.9878 9.49445 16.9878 9.50555 16.98 9.5091L11.5036 11.9984C11.5013 11.9994 11.4995 12.0013 11.4985 12.0036L9.00923 17.9778C9.00581 17.9861 8.99419 17.9861 8.99077 17.9778L6.50151 12.0036C6.50054 12.0013 6.49872 11.9994 6.49642 11.9984L1.02003 9.5091C1.01221 9.50555 1.01221 9.49445 1.02003 9.4909L6.49642 7.00163C6.49872 7.00058 6.50054 6.9987 6.50151 6.99637Z" fill="#FFFF3F" stroke="black" stroke-width="2"/>
</svg>
