<svg width="40" height="40" viewBox="0 0 40 40" fill="none" xmlns="http://www.w3.org/2000/svg">
<path d="M22.0544 3.18053C21.1407 1.31047 18.4755 1.31048 17.5619 3.18053L13.3155 11.8718L3.73741 13.2246C1.67654 13.5157 0.85297 16.0504 2.34916 17.4972L9.30287 24.2215L7.62964 33.7488C7.26962 35.7988 9.42577 37.3653 11.2641 36.3894L19.8081 31.854L28.3521 36.3894C30.1905 37.3653 32.3466 35.7988 31.9866 33.7488L30.3134 24.2215L37.2671 17.4972C38.7633 16.0504 37.9397 13.5157 35.8788 13.2246L26.3007 11.8718L22.0544 3.18053ZM30.1226 24.406L30.1234 24.4052L30.1226 24.406Z" fill="#FEC108" stroke="black" stroke-width="3"/>
<mask id="mask0_1616_1457" style="mask-type:alpha" maskUnits="userSpaceOnUse" x="3" y="3" width="34" height="33">
<path d="M18.9096 3.839C19.2751 3.09098 20.3412 3.09098 20.7066 3.839L25.0695 12.7688C25.2152 13.067 25.4995 13.2735 25.8281 13.32L35.6691 14.7099C36.4934 14.8263 36.8228 15.8402 36.2244 16.4189L29.0798 23.3277C28.8412 23.5584 28.7327 23.8926 28.7901 24.2195L30.5092 34.0083C30.6532 34.8283 29.7908 35.4549 29.0554 35.0645L20.277 30.4046C19.9838 30.249 19.6325 30.249 19.3393 30.4046L10.5608 35.0645C9.82548 35.4549 8.96302 34.8283 9.10703 34.0083L10.8262 24.2195C10.8836 23.8926 10.775 23.5584 10.5364 23.3277L3.39188 16.4189C2.79341 15.8402 3.12283 14.8263 3.94718 14.7099L13.7881 13.32C14.1168 13.2735 14.401 13.067 14.5467 12.7688L18.9096 3.839Z" fill="#D9D9D9"/>
</mask>
<g mask="url(#mask0_1616_1457)">
<path d="M17.0282 2.70185C17.3686 1.94208 18.4341 1.90663 18.8242 2.64208L23.4817 11.4218C23.6372 11.715 23.9282 11.912 24.2582 11.9474L34.1399 13.0093C34.9677 13.0982 35.3307 14.1006 34.7518 14.6989L27.841 21.8415C27.6102 22.0801 27.5128 22.4176 27.581 22.7425L29.6248 32.4687C29.796 33.2834 28.9549 33.9383 28.2069 33.5727L19.2784 29.2073C18.9802 29.0615 18.629 29.0732 18.3412 29.2385L9.72258 34.1878C9.00062 34.6024 8.1178 34.0048 8.23446 33.1805L9.62708 23.34C9.67359 23.0113 9.55397 22.6809 9.3078 22.4582L1.93745 15.7909C1.32006 15.2324 1.61558 14.2081 2.4356 14.0643L12.2248 12.3479C12.5518 12.2906 12.829 12.0747 12.9647 11.7718L17.0282 2.70185Z" fill="#FFDF00"/>
</g>
</svg>
