<svg width="57" height="57" viewBox="0 0 57 57" fill="none" xmlns="http://www.w3.org/2000/svg">
<path d="M32.5432 4.85854C30.8986 1.49244 26.1014 1.49243 24.4568 4.85853L19.5257 14.9513C19.3071 15.3987 18.8807 15.7085 18.3877 15.7781L7.26506 17.349C3.5555 17.873 2.07307 22.4354 4.7662 25.0397L12.8412 32.8483C13.1992 33.1945 13.362 33.6957 13.2759 34.1861L11.3329 45.2498C10.6848 48.9397 14.5659 51.7595 17.8749 50.0029L27.7967 44.7361C28.2365 44.5026 28.7635 44.5026 29.2033 44.7361L39.1251 50.0029C42.4341 51.7595 46.3152 48.9397 45.6671 45.2498L43.7241 34.1861C43.638 33.6957 43.8008 33.1945 44.1588 32.8483L52.2338 25.0397C54.9269 22.4354 53.4445 17.873 49.7349 17.349L38.6123 15.7781C38.1193 15.7085 37.6929 15.3987 37.4743 14.9513L32.5432 4.85854Z" fill="#F57C00" stroke="black" stroke-width="3"/>
<mask id="mask0_1616_1440" style="mask-type:alpha" maskUnits="userSpaceOnUse" x="4" y="3" width="49" height="47">
<path d="M25.8045 5.51701C26.9009 3.27294 30.0991 3.27295 31.1955 5.51701L36.1266 15.6098C36.5638 16.5046 37.4165 17.1241 38.4025 17.2634L49.5252 18.8343C51.9982 19.1836 52.9865 22.2252 51.1911 23.9614L43.116 31.77C42.4001 32.4623 42.0744 33.4647 42.2467 34.4456L44.1898 45.5093C44.6218 47.9692 42.0344 49.849 39.8284 48.678L29.9066 43.4112C29.027 42.9442 27.973 42.9442 27.0934 43.4112L17.1716 48.678C14.9656 49.849 12.3782 47.9692 12.8102 45.5093L14.7533 34.4456C14.9256 33.4647 14.5999 32.4623 13.884 31.77L5.80893 23.9614C4.0135 22.2252 5.00179 19.1836 7.47483 18.8343L18.5975 17.2634C19.5835 17.1241 20.4362 16.5046 20.8734 15.6098L25.8045 5.51701Z" fill="#D9D9D9"/>
</mask>
<g mask="url(#mask0_1616_1440)">
<path d="M23.5416 5.61932C24.5628 3.34003 27.7592 3.23367 28.9296 5.44002L34.1937 15.3632C34.6604 16.243 35.5332 16.8338 36.5233 16.9402L47.6921 18.1403C50.1754 18.4071 51.2643 21.4142 49.5276 23.2092L41.7167 31.2821C41.0243 31.9978 40.7321 33.0104 40.9369 33.985L43.2468 44.978C43.7604 47.4222 41.237 49.387 38.9932 48.29L28.9018 43.3561C28.0071 42.9187 26.9537 42.9537 26.0901 43.4497L16.349 49.0436C14.1832 50.2873 11.5347 48.4946 11.8847 46.0216L13.4587 34.8994C13.5982 33.9134 13.2393 32.9224 12.5008 32.2543L4.17054 24.7186C2.31836 23.0431 3.20494 19.9702 5.66499 19.5389L16.7292 17.5989C17.7101 17.4269 18.5417 16.7794 18.9489 15.8706L23.5416 5.61932Z" fill="#FF9801"/>
</g>
</svg>
