<svg width="96" height="74" viewBox="0 0 96 74" fill="none" xmlns="http://www.w3.org/2000/svg">
<path d="M57.4743 14.9513L52.5432 4.85854C50.8986 1.49244 46.1014 1.49243 44.4568 4.85853L39.5257 14.9513C39.3071 15.3987 38.8807 15.7085 38.3877 15.7781L27.2651 17.349C23.5555 17.873 22.0731 22.4354 24.7662 25.0397L32.8412 32.8483C33.1992 33.1945 33.362 33.6957 33.2759 34.1861L31.3329 45.2498C30.6848 48.9397 34.5659 51.7595 37.8749 50.0029L47.7967 44.7361C48.2365 44.5026 48.7635 44.5026 49.2033 44.7361L59.1251 50.0029C62.4341 51.7595 66.3152 48.9397 65.6671 45.2498L63.7241 34.1861C63.638 33.6957 63.8008 33.1945 64.1588 32.8483L72.2338 25.0397C74.9269 22.4354 73.4445 17.873 69.7349 17.349L58.6123 15.7781C58.1193 15.7085 57.6929 15.3987 57.4743 14.9513Z" fill="#F57C00" fill-opacity="0.2" stroke="black" stroke-width="3"/>
<mask id="mask0_1616_1470" style="mask-type:alpha" maskUnits="userSpaceOnUse" x="24" y="3" width="49" height="47">
<path d="M45.8045 5.51701C46.9009 3.27294 50.0991 3.27295 51.1955 5.51701L56.1266 15.6098C56.5638 16.5046 57.4165 17.1241 58.4025 17.2634L69.5252 18.8343C71.9982 19.1836 72.9865 22.2252 71.1911 23.9614L63.116 31.77C62.4001 32.4623 62.0744 33.4647 62.2467 34.4456L64.1898 45.5093C64.6218 47.9692 62.0344 49.849 59.8284 48.678L49.9066 43.4112C49.027 42.9442 47.973 42.9442 47.0934 43.4112L37.1716 48.678C34.9656 49.849 32.3782 47.9692 32.8102 45.5093L34.7533 34.4456C34.9256 33.4647 34.5999 32.4623 33.884 31.77L25.8089 23.9614C24.0135 22.2252 25.0018 19.1836 27.4748 18.8343L38.5975 17.2634C39.5835 17.1241 40.4362 16.5046 40.8734 15.6098L45.8045 5.51701Z" fill="#D9D9D9"/>
</mask>
<g mask="url(#mask0_1616_1470)">
<path d="M43.5416 5.61932C44.5628 3.34003 47.7592 3.23367 48.9296 5.44002L54.1937 15.3632C54.6604 16.243 55.5332 16.8338 56.5233 16.9402L67.6921 18.1403C70.1754 18.4071 71.2643 21.4142 69.5276 23.2092L61.7167 31.2821C61.0243 31.9978 60.7321 33.0104 60.9369 33.985L63.2468 44.978C63.7604 47.4222 61.237 49.387 58.9932 48.29L48.9018 43.3561C48.0071 42.9187 46.9537 42.9537 46.0901 43.4497L36.349 49.0436C34.1832 50.2873 31.5347 48.4946 31.8847 46.0216L33.4587 34.8994C33.5982 33.9134 33.2393 32.9224 32.5008 32.2543L24.1705 24.7186C22.3184 23.0431 23.2049 19.9702 25.665 19.5389L36.7292 17.5989C37.7101 17.4269 38.5417 16.7794 38.9489 15.8706L43.5416 5.61932Z" fill="#FF9801" fill-opacity="0.2"/>
</g>
<path d="M27.1546 38.5398L20.1497 31.8689C18.6425 30.4335 16.1439 31.3607 15.9379 33.4318L14.9807 43.0575L6.47157 47.6581C4.64072 48.648 4.75045 51.3109 6.65654 52.1468L15.5153 56.0317L17.2613 65.546C17.637 67.5932 20.2034 68.3117 21.5874 66.7572L28.0197 59.5325L37.6079 60.812C39.6709 61.0874 41.1473 58.8685 40.0966 57.0719L35.2132 48.7219L39.393 39.9984C40.2924 38.1214 38.6384 36.0316 36.605 36.4757L27.1546 38.5398Z" fill="#FEC108" fill-opacity="0.2" stroke="black" stroke-width="3"/>
<mask id="mask1_1616_1470" style="mask-type:alpha" maskUnits="userSpaceOnUse" x="6" y="32" width="33" height="35">
<path d="M17.4306 33.5803C17.513 32.7519 18.5124 32.381 19.1153 32.9551L26.3124 39.8091C26.5528 40.038 26.8911 40.1327 27.2154 40.0619L36.9251 37.9412C37.7385 37.7635 38.4 38.5995 38.0403 39.3503L33.7458 48.3131C33.6023 48.6125 33.6168 48.9635 33.7844 49.2501L38.8018 57.8292C39.2221 58.5478 38.6315 59.4354 37.8063 59.3252L27.955 58.0106C27.626 57.9667 27.2966 58.0889 27.0759 58.3368L20.4671 65.7597C19.9135 66.3815 18.8869 66.0941 18.7366 65.2753L16.9428 55.4999C16.8828 55.1734 16.6648 54.8979 16.3608 54.7646L7.25897 50.7731C6.49653 50.4387 6.45264 49.3736 7.18498 48.9776L15.9275 44.2508C16.2196 44.0929 16.4142 43.8004 16.447 43.4701L17.4306 33.5803Z" fill="#D9D9D9"/>
</mask>
<g mask="url(#mask1_1616_1470)">
<path d="M15.271 33.1688C15.3258 32.338 16.3124 31.9341 16.934 32.4879L24.3551 39.0987C24.603 39.3195 24.9443 39.4029 25.266 39.3213L34.8998 36.8789C35.7068 36.6743 36.3958 37.4877 36.0613 38.2501L32.0672 47.3508C31.9338 47.6548 31.96 48.0051 32.137 48.2859L37.4369 56.6934C37.8809 57.3977 37.3202 58.3044 36.4917 58.2218L26.6022 57.2355C26.2719 57.2025 25.9468 57.3357 25.7344 57.5908L19.3762 65.2294C18.8436 65.8693 17.808 65.6162 17.6306 64.8028L15.5125 55.0925C15.4418 54.7682 15.2147 54.5001 14.9064 54.3769L5.67688 50.6904C4.90375 50.3815 4.82446 49.3184 5.54322 48.8983L14.1237 43.8833C14.4103 43.7158 14.5951 43.417 14.617 43.0858L15.271 33.1688Z" fill="#FFDF00" fill-opacity="0.2"/>
</g>
<path d="M80.7064 41.1147L80.229 32.0034C80.1201 29.9249 77.6676 28.8818 76.0949 30.2451L69.2008 36.2214L60.3879 33.8599C58.3775 33.3212 56.6276 35.3313 57.4382 37.2483L60.9916 45.6518L56.0223 53.3036C54.8887 55.0491 56.2598 57.3345 58.3334 57.156L67.4236 56.3733L73.1653 63.464C74.4751 65.0815 77.0724 64.4838 77.5434 62.4564L79.608 53.5693L88.1259 50.2997C90.069 49.5539 90.3031 46.899 88.5206 45.8246L80.7064 41.1147Z" fill="#FEC108" fill-opacity="0.2" stroke="black" stroke-width="3"/>
<mask id="mask2_1616_1470" style="mask-type:alpha" maskUnits="userSpaceOnUse" x="57" y="31" width="32" height="32">
<path d="M77.0774 31.3786C77.7065 30.8332 78.6875 31.2505 78.7311 32.0819L79.2224 41.4582C79.2397 41.7897 79.4205 42.091 79.7048 42.2624L87.7462 47.1093C88.4593 47.5391 88.3656 48.601 87.5884 48.8993L78.8227 52.264C78.5128 52.383 78.2821 52.648 78.207 52.9713L76.0823 62.117C75.8939 62.9279 74.855 63.167 74.3311 62.52L68.4223 55.2231C68.2134 54.9651 67.8901 54.8276 67.5594 54.8561L58.2047 55.6615C57.3753 55.7329 56.8269 54.8188 57.2803 54.1206L62.3942 46.2461C62.575 45.9678 62.6058 45.6178 62.4765 45.312L58.8198 36.6641C58.4956 35.8973 59.1955 35.0933 59.9997 35.3088L69.069 37.739C69.3896 37.8249 69.732 37.7461 69.9828 37.5287L77.0774 31.3786Z" fill="#D9D9D9"/>
</mask>
<g mask="url(#mask2_1616_1470)">
<path d="M75.6976 29.8339C76.3082 29.268 77.3025 29.6523 77.3737 30.4818L78.1766 39.8367C78.205 40.1674 78.3956 40.4625 78.6855 40.6243L86.8837 45.2011C87.6106 45.6069 87.5524 46.6714 86.7855 46.9954L78.1366 50.6497C77.8308 50.7789 77.609 51.0515 77.5447 51.3771L75.7253 60.5884C75.564 61.4052 74.5337 61.6787 73.9885 61.0495L67.8403 53.9531C67.623 53.7022 67.2953 53.5756 66.9657 53.615L57.643 54.7311C56.8164 54.8301 56.2378 53.9347 56.6678 53.2218L61.5169 45.1816C61.6884 44.8974 61.7076 44.5466 61.5682 44.2453L57.6259 35.7238C57.2763 34.9682 57.9491 34.1413 58.76 34.3299L67.9051 36.4572C68.2284 36.5324 68.568 36.4423 68.8114 36.2166L75.6976 29.8339Z" fill="#FFDF00" fill-opacity="0.2"/>
</g>
<path d="M82 18.5L84.5 16M84.5 18.5L82 16" stroke="black" stroke-width="3" stroke-linecap="round" stroke-linejoin="round"/>
<path d="M27 9.5L29.5 7M29.5 9.5L27 7" stroke="black" stroke-width="3" stroke-linecap="round" stroke-linejoin="round"/>
<path d="M70.75 7H74.75V10H70.75V7Z" fill="#FFEB3A" fill-opacity="0.2"/>
<path d="M72.5 3C72.5 4.83333 71.4 8.5 67 8.5" stroke="black" stroke-width="2.5" stroke-linecap="round"/>
<path d="M78 8.5C76.1667 8.5 72.5 7.4 72.5 3" stroke="black" stroke-width="2.5" stroke-linecap="round"/>
<path d="M72.5 14C72.5 12.1667 73.6 8.5 78 8.5" stroke="black" stroke-width="2.5" stroke-linecap="round"/>
<path d="M67 8.5C68.8333 8.5 72.5 9.6 72.5 14" stroke="black" stroke-width="2.5" stroke-linecap="round"/>
<path d="M10.75 17H14.75V20H10.75V17Z" fill="#FFEB3A" fill-opacity="0.2"/>
<path d="M12.5 13C12.5 14.8333 11.4 18.5 7 18.5" stroke="black" stroke-width="2.5" stroke-linecap="round"/>
<path d="M18 18.5C16.1667 18.5 12.5 17.4 12.5 13" stroke="black" stroke-width="2.5" stroke-linecap="round"/>
<path d="M12.5 24C12.5 22.1667 13.6 18.5 18 18.5" stroke="black" stroke-width="2.5" stroke-linecap="round"/>
<path d="M7 18.5C8.83333 18.5 12.5 19.6 12.5 24" stroke="black" stroke-width="2.5" stroke-linecap="round"/>
</svg>
